<?xml version="1.0" encoding="utf-8"?>
<!-- Generator: Adobe Illustrator 22.0.1, SVG Export Plug-In . SVG Version: 6.00 Build 0)  -->
<svg version="1.1" id="Layer_1" xmlns="http://www.w3.org/2000/svg" xmlns:xlink="http://www.w3.org/1999/xlink" x="0px" y="0px"
	 viewBox="0 0 600 600" style="enable-background:new 0 0 600 600;" xml:space="preserve">
<style type="text/css">
	.st0{fill:#7BC950;}
	.st1{fill:#7CE577;}
	.st2{fill:#00A8E8;}
	.st3{fill:#C5283D;}
	.st4{fill:#FFC857;}
	.st5{fill:#E9724C;}
	.st6{fill:#007EA7;}
	.st7{fill:#003459;}
	.st8{fill:#9CFFD9;}
	.st9{display:none;fill:#FFFFFF;}
	.st10{fill:#F8E3D9;}
	.st11{fill:#FFFFFF;}
</style>
<g>
	<path class="st0" d="M268,219.1l-28.1-98.3c-6.2-32.7-34.9-57.4-69.4-57.4c-39.1,0-70.7,31.7-70.7,70.7c0,24.2,12.2,45.5,30.7,58.3
		l-0.1,0.2l94.4,60.3C235,237.5,250.2,225.5,268,219.1z"/>
	<path class="st1" d="M221,258.9L135.2,201c-25.8-20.9-63.5-21.2-89.9,0.9c-29.9,25.1-33.8,69.7-8.7,99.6
		c15.6,18.5,38.6,27.1,61,24.9l0,0.2l112.6-14.7c-0.4-3.2-0.5-6.5-0.5-9.8C209.7,286.4,213.8,271.7,221,258.9z"/>
	<path class="st2" d="M353.1,371.2l63.4,87.2c17.4,27.6,52.2,40.3,84,28.6c36.7-13.4,55.5-54,42.1-90.7
		c-8.3-22.7-27.1-38.6-48.8-44.2l0-0.1l-111.2-24.7C377.5,344.8,367,360,353.1,371.2z"/>
	<path class="st3" d="M544.5,217.4c-21-12.1-45.5-12.2-65.8-2.4l0-0.1l-99.7,51.9c4.7,10.8,7.4,22.8,7.4,35.4
		c0,6.3-0.7,12.4-1.9,18.3l103.8,25.8c30.9,9.6,65.5-3,82.3-32.3C590,280.1,578.3,236.9,544.5,217.4z"/>
	<path class="st4" d="M329.8,219.7l42.8-96.4c0.9-1.8,1.7-3.7,2.5-5.5l0.2-0.4l0,0c10.6-27.5,3.2-59.8-20.6-79.8
		c-30-25-74.6-21-99.6,9c-15.5,18.6-19.9,42.7-13.8,64.4l0,0l0.1,0.2c0.4,1.4,0.8,2.7,1.3,4.1L274.5,217c7.5-2.1,15.3-3.2,23.4-3.2
		C309.2,213.8,319.9,215.9,329.8,219.7z"/>
	<path class="st5" d="M375.9,260.5l95.2-46.5c29.6-12.6,47.7-44.4,41.8-77.4c-6.9-38.4-43.6-64-82-57.2c-23.8,4.3-42.7,20-52,40.5
		l0,0l-42.6,102.8C353.1,230.6,367,244,375.9,260.5z"/>
	<path class="st6" d="M297.3,390.5L289.9,498c-4.7,32.5,13.9,64.9,45.9,76.5c36.7,13.3,77.3-5.7,90.6-42.4c8.2-22.7,4.1-47-9-65.3
		l0.1-0.1l-70.1-91.4c-14.1,9.5-31.1,15.1-49.4,15.1C297.8,390.5,297.6,390.5,297.3,390.5z"/>
	<path class="st7" d="M167.6,447.2c-24.7,21.8-31.4,58.7-14.3,88.3c19.6,33.8,62.8,45.3,96.6,25.8c20.9-12.1,33.3-33.3,35.1-55.8
		l0.1,0l5.1-115.5c-18.3-1.6-35-8.8-48.4-19.8L167.6,447.2z"/>
	<path class="st8" d="M211.3,318.9l-104.7,11c-33,0.7-62.1,24.7-68,58.5c-6.8,38.5,18.9,75.1,57.4,81.9c23.8,4.2,47-4.1,62.7-20.1
		l0.1,0.1l77.7-84.7C223.8,353.2,214.8,337,211.3,318.9z"/>
	<path class="st9" d="M378.9,266.8c-0.9-2.2-2-4.3-3.1-6.3l-69.4,33.9l29.8-71.9c-2.1-1-4.2-1.9-6.4-2.8L298,291.3L274.5,217
		c-2.2,0.6-4.4,1.3-6.5,2.1l21.6,75.3l-64.9-41.5c-1.3,1.9-2.5,3.9-3.7,6l64.1,43.2l-74.9,9.8c0.3,2.4,0.6,4.7,1.1,7l75.4-7.9
		l-50.1,54.6c1.7,1.6,3.5,3.2,5.3,4.7l51.7-53.5l-3.3,73.4c2.3,0.2,4.7,0.3,7.1,0.3l5.1-73.7l44.9,58.6c2-1.3,3.9-2.7,5.7-4.2
		L309.3,311l73.3,16.3c0.7-2.2,1.2-4.5,1.7-6.9l-73.5-18.3L378.9,266.8z"/>
	<path class="st9" d="M268,219.1c-17.8,6.4-32.9,18.4-43.3,33.9l64.9,41.5L268,219.1z"/>
	<path class="st9" d="M221,258.9c-7.2,12.8-11.3,27.5-11.3,43.2c0,3.3,0.2,6.6,0.5,9.8l74.9-9.8L221,258.9z"/>
	<path class="st9" d="M353.1,371.2c13.9-11.1,24.4-26.4,29.6-43.9L309.3,311L353.1,371.2z"/>
	<path class="st9" d="M378.9,266.8l-68,35.4l73.5,18.3c1.2-5.9,1.9-12,1.9-18.3C386.3,289.6,383.7,277.6,378.9,266.8z"/>
	<path class="st9" d="M329.8,219.7c-9.9-3.8-20.6-5.9-31.8-5.9c-8.1,0-16,1.1-23.4,3.2l23.4,74.3L329.8,219.7z"/>
	<path class="st9" d="M375.9,260.5c-8.8-16.5-22.8-29.8-39.7-37.9l-29.8,71.9L375.9,260.5z"/>
	<path class="st9" d="M297.3,390.5c0.2,0,0.4,0,0.6,0c18.3,0,35.3-5.6,49.4-15.1l-44.9-58.6L297.3,390.5z"/>
	<path class="st9" d="M241.8,370.3c13.4,11.1,30.1,18.2,48.4,19.8l3.3-73.4L241.8,370.3z"/>
	<path class="st9" d="M211.3,318.9c3.5,18.1,12.5,34.3,25.3,46.7l50.1-54.6L211.3,318.9z"/>
</g>
<circle class="st10" cx="297.9" cy="302" r="90"/>
<path class="st11" d="M269.3,363c-3.1-0.7-4.2-4-4.4-4.5c-0.5-1.4-0.4-2.6-0.3-3.3c0.5-4.5,4.2-8.4,7.5-11.1c3.4-2.8,7.5-5,11.9-5.7
	c2.2-0.4,4.4-0.4,6.6-0.2c0,0-1.3,21.2-1.3,21.2c0-0.1-5,0.1-5.4,0.1c-3.1,0.1-6.3,0.5-9.1,1.9C272.9,362.4,271.5,363.5,269.3,363z"
	/>
<path class="st11" d="M308.7,365.4c3.2-0.3,4.7-3.4,4.9-3.9c0.6-1.3,0.7-2.5,0.7-3.3c0.1-4.5-3.2-8.8-6.1-12
	c-3-3.2-6.8-5.8-11.1-7.1c-2.1-0.7-4.3-1-6.5-1c0,0-1.3,21.2-1.3,21.2c0-0.1,5,0.7,5.4,0.7c3.1,0.5,6.2,1.2,8.8,3
	C305.2,364.3,306.5,365.6,308.7,365.4z"/>
<rect x="255.6" y="266.7" transform="matrix(0.6615 0.75 -0.75 0.6615 307.5046 -94.4134)" width="5.5" height="53.3"/>
<rect x="255.6" y="266.7" transform="matrix(0.75 -0.6615 0.6615 0.75 -129.4926 244.2401)" width="5.5" height="53.3"/>
<rect x="333.5" y="273.7" transform="matrix(0.6615 0.75 -0.75 0.6615 339.1148 -150.4417)" width="5.5" height="53.3"/>
<rect x="333.5" y="273.7" transform="matrix(0.75 -0.6615 0.6615 0.75 -114.6541 297.4969)" width="5.5" height="53.3"/>
</svg>
