<svg id="Layer_1" data-name="Layer 1" xmlns="http://www.w3.org/2000/svg" viewBox="0 0 559.87 557.52"><defs><style>.cls-1{fill:#7bc950;}.cls-2{fill:#7ce577;}.cls-3{fill:#00a8e8;}.cls-4{fill:#c5283d;}.cls-5{fill:#ffc857;}.cls-6{fill:#e9724c;}.cls-7{fill:#007ea7;}.cls-8{fill:#003459;}.cls-9{fill:#9cffd9;}.cls-10{fill:#f8e3d9;}.cls-11{fill:#fff;}</style></defs><title>LogoSVG</title><path class="cls-1" d="M265.8,219.43l-28.15-98.26A70.7,70.7,0,1,0,128.2,192.8l-.13.19,94.39,60.29A88.57,88.57,0,0,1,265.8,219.43Z" transform="translate(-17.87 -21.61)"/><path class="cls-2" d="M218.78,259.27,133,201.39a70.71,70.71,0,1,0-37.58,125.4l0,.2L208,312.29a88.46,88.46,0,0,1,10.76-53Z" transform="translate(-17.87 -21.61)"/><path class="cls-3" d="M350.9,371.52l63.44,87.21a70.71,70.71,0,1,0,77.32-106.29l0-.09-111.22-24.7A88.39,88.39,0,0,1,350.9,371.52Z" transform="translate(-17.87 -21.61)"/><path class="cls-4" d="M542.26,217.79a70.63,70.63,0,0,0-65.83-2.45l0-.06-99.67,51.86a88.63,88.63,0,0,1,5.48,53.66l103.84,25.81a70.7,70.7,0,0,0,56.21-128.82Z" transform="translate(-17.87 -21.61)"/><path class="cls-5" d="M327.58,220.1l42.78-96.39q1.35-2.71,2.45-5.52l.18-.39h0a70.71,70.71,0,1,0-134-6.38h0l0,.18c.39,1.37.82,2.73,1.29,4.07l32.07,101.69a88.71,88.71,0,0,1,55.24,2.75Z" transform="translate(-17.87 -21.61)"/><path class="cls-6" d="M373.66,260.82l95.21-46.54a70.71,70.71,0,1,0-92.26-94.15h0L334,222.87A88.7,88.7,0,0,1,373.66,260.82Z" transform="translate(-17.87 -21.61)"/><path class="cls-7" d="M295.15,390.82,287.67,498.4a70.71,70.71,0,1,0,127.5-31.16l.1-.07-70.08-91.43a87.91,87.91,0,0,1-49.4,15.09Z" transform="translate(-17.87 -21.61)"/><path class="cls-8" d="M165.36,447.6A70.71,70.71,0,1,0,282.77,506h.15L288,390.49a87.93,87.93,0,0,1-48.42-19.82Z" transform="translate(-17.87 -21.61)"/><path class="cls-9" d="M209.07,319.28l-104.72,11a70.71,70.71,0,1,0,52.12,120.2l.12.12,77.74-84.68A88.24,88.24,0,0,1,209.07,319.28Z" transform="translate(-17.87 -21.61)"/><circle class="cls-10" cx="277.79" cy="280.8" r="89.99"/><circle class="cls-11" cx="231.69" cy="274.11" r="30.37"/><circle cx="231.69" cy="274.11" r="22.87"/><circle class="cls-11" cx="221.68" cy="257.96" r="8.72"/><circle class="cls-11" cx="321.94" cy="280.58" r="30.37"/><circle cx="321.94" cy="280.58" r="22.87"/><circle class="cls-11" cx="311.93" cy="264.43" r="8.72"/><path class="cls-11" d="M309.74,343.61c3.19.5,4.48,3.71,4.66,4.17a7.42,7.42,0,0,1,.48,3.3c-.18,4.49-3.71,8.63-6.83,11.56a26,26,0,0,1-11.5,6.46,23.54,23.54,0,0,1-6.59.58V348.4c0,.14,5-.37,5.42-.42a21.56,21.56,0,0,0,9-2.48C306.13,344.45,307.51,343.25,309.74,343.61Z" transform="translate(-17.87 -21.61)"/><path class="cls-11" d="M270.18,343.61c-3.18.5-4.47,3.71-4.66,4.17a7.57,7.57,0,0,0-.48,3.3c.19,4.49,3.71,8.63,6.84,11.56a26,26,0,0,0,11.49,6.46,23.57,23.57,0,0,0,6.59.58V348.4c0,.14-5-.37-5.41-.42a21.56,21.56,0,0,1-9-2.48C273.79,344.45,272.42,343.25,270.18,343.61Z" transform="translate(-17.87 -21.61)"/><ellipse class="cls-11" cx="271.82" cy="346.28" rx="6.97" ry="1.98"/></svg>